<svg width="226" height="138" viewBox="0 0 226 138" fill="none" xmlns="http://www.w3.org/2000/svg">
<path d="M215.194 129.32C214.932 128.716 214.468 128.223 213.882 127.924C213.296 127.625 212.624 127.539 211.981 127.681C211.373 127.843 210.819 128.163 210.374 128.607C208.26 130.661 206.205 132.776 204.115 134.854C203.073 136.013 201.666 136.78 200.128 137.028C198.589 137.276 197.012 136.99 195.659 136.218C194.865 135.772 194.171 135.167 193.622 134.441C193.073 133.714 192.681 132.882 192.469 131.996C192.44 131.82 192.422 131.643 192.415 131.465C192.608 131.736 192.706 131.882 192.815 132.022C193.058 132.352 193.37 132.625 193.729 132.821C194.088 133.017 194.486 133.132 194.895 133.158C195.304 133.184 195.713 133.12 196.094 132.97C196.475 132.82 196.819 132.589 197.101 132.292C199.224 130.181 201.325 128.049 203.446 125.937C204.5 124.759 205.928 123.982 207.489 123.737C209.05 123.491 210.648 123.793 212.012 124.59C212.868 125.083 213.6 125.766 214.152 126.586C214.703 127.406 215.06 128.341 215.194 129.32Z" fill="#C2002D"/>
<path d="M193.143 131.341C193.222 131.454 193.28 131.541 193.343 131.619C193.526 131.869 193.76 132.076 194.03 132.227C194.301 132.378 194.6 132.468 194.909 132.492C195.227 132.512 195.546 132.462 195.843 132.346C196.14 132.23 196.409 132.05 196.629 131.82C197.736 130.719 198.839 129.614 199.939 128.506C200.949 127.491 201.961 126.478 202.974 125.465C203.025 125.414 203.074 125.365 203.13 125.32C202.183 124.522 201.031 124.007 199.805 123.833C198.579 123.66 197.329 123.835 196.198 124.339C195.067 124.842 194.1 125.654 193.409 126.682C192.718 127.709 192.33 128.91 192.29 130.148L193.143 131.341Z" fill="#35B0BD"/>
<path d="M214.621 129.654C213.745 128.164 212.777 128.183 212.121 128.326C211.635 128.462 211.191 128.722 210.834 129.08C209.519 130.357 208.204 131.68 206.934 132.963C206.152 133.751 205.368 134.538 204.581 135.323C204.522 135.381 204.459 135.432 204.399 135.489C205.35 136.273 206.502 136.774 207.723 136.936C208.945 137.099 210.187 136.915 211.31 136.407C212.433 135.899 213.39 135.087 214.074 134.062C214.759 133.037 215.142 131.841 215.18 130.609L214.621 129.654Z" fill="#35B0BD"/>
<path d="M163.505 4.844C161.304 4.84253 159.109 5.06501 156.953 5.508L158.697 14.296C160.278 13.9646 161.89 13.797 163.505 13.796C168.821 13.7892 173.98 15.6016 178.124 18.932C177.997 18.9188 177.869 18.9121 177.741 18.912C176.754 18.912 175.807 19.3041 175.109 20.0021C174.411 20.7002 174.019 21.6469 174.019 22.634C174.019 23.6211 174.411 24.5678 175.109 25.2659C175.807 25.9639 176.754 26.356 177.741 26.356C178.728 26.356 179.675 25.9639 180.373 25.2659C181.071 24.5678 181.463 23.6211 181.463 22.634C181.462 22.4755 181.451 22.3172 181.43 22.16C184.972 26.3683 186.91 31.6938 186.903 37.194C186.902 39.0166 186.688 40.8329 186.266 42.606L194.806 45.406C195.507 42.7249 195.861 39.9651 195.859 37.194C195.858 28.6138 192.449 20.3853 186.382 14.3186C180.314 8.25181 172.085 4.84374 163.505 4.844Z" fill="#5157A2"/>
<path d="M163.499 9.99098C157.198 9.99467 151.127 12.3587 146.483 16.617C146.55 16.3332 146.583 16.0426 146.583 15.751C146.582 14.7638 146.19 13.8171 145.492 13.1191C144.794 12.4211 143.847 12.029 142.859 12.029C141.873 12.0303 140.928 12.423 140.231 13.1208C139.533 13.8187 139.142 14.7646 139.142 15.751C139.142 16.7381 139.534 17.6848 140.232 18.3828C140.93 19.0808 141.876 19.473 142.863 19.473C143.214 19.4728 143.563 19.4226 143.9 19.324C139.95 24.1249 137.799 30.1533 137.818 36.37C137.816 38.4106 138.046 40.4448 138.501 42.434L147.901 40.256C147.6 38.9825 147.448 37.6785 147.448 36.37C147.39 32.054 149.049 27.892 152.06 24.7991C155.071 21.7062 159.187 19.9357 163.502 19.877C164.981 19.8774 166.451 20.0871 167.871 20.5L170.247 10.909C168.049 10.2976 165.779 9.98875 163.499 9.99098Z" fill="#F0C014"/>
<path d="M185.643 54.812C185.519 54.812 185.397 54.819 185.276 54.831C189.01 50.0965 191.032 44.2385 191.015 38.209C191.017 35.9419 190.734 33.6836 190.173 31.487L180.887 34.101C181.221 35.4448 181.389 36.8244 181.387 38.209C181.444 42.5244 179.785 46.6859 176.775 49.7785C173.765 52.8711 169.649 54.6417 165.334 54.701C163.935 54.7014 162.542 54.514 161.192 54.144L157.871 63.457C160.287 64.2096 162.803 64.5916 165.334 64.59C171.443 64.5891 177.342 62.3674 181.934 58.339C181.934 58.404 181.924 58.468 181.924 58.539C181.924 59.0278 182.02 59.5119 182.207 59.9635C182.394 60.4151 182.668 60.8255 183.014 61.1711C183.36 61.5168 183.77 61.7909 184.222 61.9779C184.673 62.1649 185.157 62.2611 185.646 62.261C186.633 62.261 187.58 61.8689 188.278 61.1709C188.976 60.4728 189.368 59.5261 189.368 58.539C189.369 58.0495 189.273 57.5648 189.086 57.1124C188.899 56.6601 188.625 56.249 188.279 55.9029C187.933 55.5567 187.522 55.2821 187.07 55.0949C186.617 54.9078 186.133 54.8116 185.643 54.812Z" fill="#35B0BD"/>
<path d="M150.518 53.772C152.574 53.772 154.24 52.1056 154.24 50.05C154.24 47.9944 152.574 46.328 150.518 46.328C148.462 46.328 146.796 47.9944 146.796 50.05C146.796 52.1056 148.462 53.772 150.518 53.772Z" fill="#C2002D"/>
<path d="M168.7 59.851C167.359 60.088 165.999 60.2081 164.637 60.21C160.239 60.2154 155.93 58.9749 152.208 56.632L143.819 56.932L144.278 48.332C142.283 44.8193 141.236 40.8478 141.24 36.808C141.241 35.3026 141.386 33.8006 141.674 32.323L133.033 29.867C132.535 32.147 132.284 34.4741 132.284 36.808C132.276 42.6091 133.835 48.3048 136.796 53.293L136.196 64.556L147.341 64.156C152.514 67.4373 158.515 69.1749 164.641 69.165C166.798 69.1656 168.949 68.9515 171.063 68.526L168.7 59.851Z" fill="#C2002D"/>
<path d="M66.2624 56.845H43.5234V0H65.1994C77.2224 0 83.5994 6.624 83.5994 14.641C83.5994 21.511 79.4284 25.683 73.9474 27.641C80.0014 28.705 84.9075 34.757 84.9075 41.541C84.9105 50.22 77.8774 56.845 66.2624 56.845ZM64.3804 7.606H52.8474V23.883H64.3804C70.4344 23.883 74.1145 21.019 74.1145 15.783C74.1145 10.632 70.4344 7.606 64.3804 7.606ZM65.1174 31.488H52.8474V49.239H65.4474C71.7474 49.239 75.5904 46.049 75.5904 40.568C75.5894 34.925 71.3334 31.488 65.1174 31.488Z" fill="#F0C014"/>
<path d="M88.992 49.823C101.981 38.423 115.649 28.451 115.649 17.652C115.649 11.913 113.157 7.98601 106.738 7.98601C100.697 7.98601 97.451 12.214 97.223 18.408H88.916C89.216 6.47501 96.922 0.661011 106.662 0.661011C117.839 0.661011 124.182 7.38101 124.182 17.275C124.182 30.641 110.589 40.835 101.755 48.915H125.693V56.091H88.993L88.992 49.823Z" fill="#35B0BD"/>
<path d="M94.2313 82.873H89.3223V75.849H94.2313V65.504H102.917V75.849H113.034V82.873H102.917V105.905C102.917 109.005 104.117 110.285 107.75 110.285H113.034V117.458H106.234C98.8343 117.458 94.2273 114.358 94.2273 105.905L94.2313 82.873Z" fill="#35B0BD"/>
<path d="M117.09 61.577H125.698V80.682C128.568 77.208 133.249 75.17 138.611 75.17C147.9 75.17 155.148 81.286 155.148 92.916V117.458H146.617V94.199C146.617 86.572 142.46 82.645 136.193 82.645C129.851 82.645 125.698 86.572 125.698 94.199V117.458H117.09V61.577Z" fill="#35B0BD"/>
<path d="M180.014 118.139C168.081 118.139 159.247 109.68 159.247 96.616C159.247 83.552 167.704 75.17 180.014 75.17C191.869 75.17 200.252 83.4 200.252 95.634C200.265 97.0491 200.164 98.4629 199.952 99.862H168.155C168.762 106.735 173.669 110.889 180.014 110.889C185.298 110.889 188.246 108.321 189.828 105.074H199.117C196.776 112.32 190.209 118.139 180.014 118.139ZM168.233 92.92H191.263C191.115 86.501 186.053 82.42 179.637 82.42C173.82 82.42 169.139 86.345 168.233 92.92Z" fill="#35B0BD"/>
<path d="M213.542 117.458H204.934V75.849H213.542V81.891C215.957 77.737 220.11 75.17 226 75.17V84.08H223.811C217.469 84.08 213.542 86.724 213.542 95.558V117.458Z" fill="#35B0BD"/>
<path d="M19.635 75.17C26.435 75.17 31.49 78.341 34.058 81.891V75.849H42.742V118.139C42.742 129.465 35.417 138 22.429 138C11.329 138 3.09599 132.486 2.03899 123.273H10.572C11.857 127.573 16.462 130.523 22.429 130.523C29.074 130.523 34.058 126.444 34.058 118.139V111.191C32.3601 113.391 30.1722 115.165 27.6684 116.371C25.1646 117.577 22.4139 118.183 19.635 118.139C8.68399 118.139 0 109.303 0 96.464C0 83.625 8.68399 75.17 19.635 75.17ZM21.447 82.645C15.027 82.645 8.83499 87.478 8.83499 96.464C8.83499 105.45 15.027 110.664 21.447 110.664C27.94 110.664 34.058 105.605 34.058 96.618C34.058 87.706 27.94 82.645 21.447 82.645Z" fill="#35B0BD"/>
<path d="M68.0512 118.139C56.1202 118.139 47.2842 109.68 47.2842 96.616C47.2842 83.552 55.7432 75.17 68.0512 75.17C79.9062 75.17 88.2892 83.4 88.2892 95.634C88.3013 97.049 88.201 98.4628 87.9892 99.862H56.1962C56.7962 106.735 61.7082 110.889 68.0512 110.889C73.3392 110.889 76.2832 108.321 77.8692 105.074H87.1582C84.8172 112.32 78.2462 118.139 68.0512 118.139ZM56.2722 92.92H79.3042C79.1522 86.501 74.0932 82.42 67.6742 82.42C61.8592 82.42 57.1792 86.345 56.2722 92.92Z" fill="#35B0BD"/>
<path d="M49.4282 129.821C49.7886 129.378 50.2573 129.157 50.8345 129.157C51.8394 129.157 52.3462 129.724 52.355 130.858V134H51.542V130.854C51.5391 130.511 51.46 130.257 51.3047 130.093C51.1523 129.929 50.9136 129.847 50.5884 129.847C50.3247 129.847 50.0933 129.917 49.894 130.058C49.6948 130.199 49.5396 130.383 49.4282 130.612V134H48.6152V127.25H49.4282V129.821ZM56.5078 133.53C56.1914 133.902 55.7271 134.088 55.1147 134.088C54.6079 134.088 54.2212 133.941 53.9546 133.648C53.6909 133.353 53.5576 132.916 53.5547 132.339V129.245H54.3677V132.317C54.3677 133.038 54.6606 133.398 55.2466 133.398C55.8677 133.398 56.2808 133.167 56.4858 132.704V129.245H57.2988V134H56.5254L56.5078 133.53ZM59.3027 129.245L59.3247 129.772C59.6733 129.362 60.1436 129.157 60.7354 129.157C61.4004 129.157 61.853 129.412 62.0933 129.922C62.2515 129.693 62.4565 129.509 62.7085 129.368C62.9634 129.228 63.2637 129.157 63.6094 129.157C64.6523 129.157 65.1826 129.709 65.2002 130.814V134H64.3872V130.862C64.3872 130.522 64.3096 130.269 64.1543 130.102C63.999 129.932 63.7383 129.847 63.3721 129.847C63.0703 129.847 62.8198 129.938 62.6206 130.12C62.4214 130.298 62.3057 130.54 62.2734 130.845V134H61.4561V130.884C61.4561 130.193 61.1177 129.847 60.4409 129.847C59.9077 129.847 59.543 130.074 59.3467 130.528V134H58.5337V129.245H59.3027ZM69.3662 134C69.3193 133.906 69.2812 133.739 69.252 133.499C68.874 133.892 68.4229 134.088 67.8984 134.088C67.4297 134.088 67.0444 133.956 66.7427 133.692C66.4438 133.426 66.2944 133.089 66.2944 132.682C66.2944 132.187 66.4819 131.803 66.8569 131.53C67.2349 131.255 67.7651 131.117 68.4478 131.117H69.2388V130.744C69.2388 130.459 69.1538 130.234 68.9839 130.067C68.814 129.897 68.5635 129.812 68.2324 129.812C67.9424 129.812 67.6992 129.885 67.5029 130.032C67.3066 130.178 67.2085 130.355 67.2085 130.563H66.3911C66.3911 130.326 66.4746 130.098 66.6416 129.878C66.8115 129.655 67.04 129.479 67.3271 129.351C67.6172 129.222 67.9351 129.157 68.2808 129.157C68.8286 129.157 69.2578 129.295 69.5684 129.57C69.8789 129.843 70.04 130.219 70.0518 130.7V132.888C70.0518 133.325 70.1074 133.672 70.2188 133.93V134H69.3662ZM68.0171 133.38C68.272 133.38 68.5137 133.314 68.7422 133.183C68.9707 133.051 69.1362 132.879 69.2388 132.668V131.693H68.6016C67.6055 131.693 67.1074 131.984 67.1074 132.567C67.1074 132.822 67.1924 133.021 67.3623 133.165C67.5322 133.309 67.7505 133.38 68.0171 133.38ZM72.0952 129.245L72.1216 129.843C72.4849 129.386 72.9595 129.157 73.5454 129.157C74.5503 129.157 75.0571 129.724 75.0659 130.858V134H74.2529V130.854C74.25 130.511 74.1709 130.257 74.0156 130.093C73.8633 129.929 73.6245 129.847 73.2993 129.847C73.0356 129.847 72.8042 129.917 72.605 130.058C72.4058 130.199 72.2505 130.383 72.1392 130.612V134H71.3262V129.245H72.0952ZM77.1753 134H76.3623V129.245H77.1753V134ZM76.2964 127.984C76.2964 127.852 76.3359 127.741 76.415 127.65C76.4971 127.559 76.6172 127.514 76.7754 127.514C76.9336 127.514 77.0537 127.559 77.1357 127.65C77.2178 127.741 77.2588 127.852 77.2588 127.984C77.2588 128.116 77.2178 128.226 77.1357 128.313C77.0537 128.401 76.9336 128.445 76.7754 128.445C76.6172 128.445 76.4971 128.401 76.415 128.313C76.3359 128.226 76.2964 128.116 76.2964 127.984ZM79.5835 128.094V129.245H80.4712V129.874H79.5835V132.822C79.5835 133.013 79.623 133.156 79.7021 133.253C79.7812 133.347 79.916 133.394 80.1064 133.394C80.2002 133.394 80.3291 133.376 80.4932 133.341V134C80.2793 134.059 80.0713 134.088 79.8691 134.088C79.5059 134.088 79.2319 133.978 79.0474 133.758C78.8628 133.539 78.7705 133.227 78.7705 132.822V129.874H77.9048V129.245H78.7705V128.094H79.5835ZM84.3604 134C84.3135 133.906 84.2754 133.739 84.2461 133.499C83.8682 133.892 83.417 134.088 82.8926 134.088C82.4238 134.088 82.0386 133.956 81.7368 133.692C81.438 133.426 81.2886 133.089 81.2886 132.682C81.2886 132.187 81.4761 131.803 81.8511 131.53C82.229 131.255 82.7593 131.117 83.4419 131.117H84.2329V130.744C84.2329 130.459 84.1479 130.234 83.978 130.067C83.8081 129.897 83.5576 129.812 83.2266 129.812C82.9365 129.812 82.6934 129.885 82.4971 130.032C82.3008 130.178 82.2026 130.355 82.2026 130.563H81.3853C81.3853 130.326 81.4688 130.098 81.6357 129.878C81.8057 129.655 82.0342 129.479 82.3213 129.351C82.6113 129.222 82.9292 129.157 83.2749 129.157C83.8228 129.157 84.252 129.295 84.5625 129.57C84.873 129.843 85.0342 130.219 85.0459 130.7V132.888C85.0459 133.325 85.1016 133.672 85.2129 133.93V134H84.3604ZM83.0112 133.38C83.2661 133.38 83.5078 133.314 83.7363 133.183C83.9648 133.051 84.1304 132.879 84.2329 132.668V131.693H83.5957C82.5996 131.693 82.1016 131.984 82.1016 132.567C82.1016 132.822 82.1865 133.021 82.3564 133.165C82.5264 133.309 82.7446 133.38 83.0112 133.38ZM88.6187 129.975C88.4956 129.954 88.3623 129.944 88.2188 129.944C87.6855 129.944 87.3237 130.171 87.1333 130.625V134H86.3203V129.245H87.1113L87.1245 129.794C87.3911 129.37 87.769 129.157 88.2583 129.157C88.4165 129.157 88.5366 129.178 88.6187 129.219V129.975ZM90.2534 134H89.4404V129.245H90.2534V134ZM89.3745 127.984C89.3745 127.852 89.4141 127.741 89.4932 127.65C89.5752 127.559 89.6953 127.514 89.8535 127.514C90.0117 127.514 90.1318 127.559 90.2139 127.65C90.2959 127.741 90.3369 127.852 90.3369 127.984C90.3369 128.116 90.2959 128.226 90.2139 128.313C90.1318 128.401 90.0117 128.445 89.8535 128.445C89.6953 128.445 89.5752 128.401 89.4932 128.313C89.4141 128.226 89.3745 128.116 89.3745 127.984ZM94.4941 134C94.4473 133.906 94.4092 133.739 94.3799 133.499C94.002 133.892 93.5508 134.088 93.0264 134.088C92.5576 134.088 92.1724 133.956 91.8706 133.692C91.5718 133.426 91.4224 133.089 91.4224 132.682C91.4224 132.187 91.6099 131.803 91.9849 131.53C92.3628 131.255 92.8931 131.117 93.5757 131.117H94.3667V130.744C94.3667 130.459 94.2817 130.234 94.1118 130.067C93.9419 129.897 93.6914 129.812 93.3604 129.812C93.0703 129.812 92.8271 129.885 92.6309 130.032C92.4346 130.178 92.3364 130.355 92.3364 130.563H91.519C91.519 130.326 91.6025 130.098 91.7695 129.878C91.9395 129.655 92.168 129.479 92.4551 129.351C92.7451 129.222 93.063 129.157 93.4087 129.157C93.9565 129.157 94.3857 129.295 94.6963 129.57C95.0068 129.843 95.168 130.219 95.1797 130.7V132.888C95.1797 133.325 95.2354 133.672 95.3467 133.93V134H94.4941ZM93.145 133.38C93.3999 133.38 93.6416 133.314 93.8701 133.183C94.0986 133.051 94.2642 132.879 94.3667 132.668V131.693H93.7295C92.7334 131.693 92.2354 131.984 92.2354 132.567C92.2354 132.822 92.3203 133.021 92.4902 133.165C92.6602 133.309 92.8784 133.38 93.145 133.38ZM97.2231 129.245L97.2495 129.843C97.6128 129.386 98.0874 129.157 98.6733 129.157C99.6782 129.157 100.185 129.724 100.194 130.858V134H99.3809V130.854C99.3779 130.511 99.2988 130.257 99.1436 130.093C98.9912 129.929 98.7524 129.847 98.4272 129.847C98.1636 129.847 97.9321 129.917 97.7329 130.058C97.5337 130.199 97.3784 130.383 97.2671 130.612V134H96.4541V129.245H97.2231ZM105.56 133.424C105.85 133.424 106.103 133.336 106.32 133.161C106.537 132.985 106.657 132.765 106.68 132.501H107.449C107.435 132.774 107.341 133.033 107.168 133.279C106.995 133.525 106.764 133.722 106.474 133.868C106.187 134.015 105.882 134.088 105.56 134.088C104.912 134.088 104.396 133.873 104.013 133.442C103.632 133.008 103.441 132.417 103.441 131.667V131.53C103.441 131.067 103.526 130.656 103.696 130.295C103.866 129.935 104.109 129.655 104.426 129.456C104.745 129.257 105.122 129.157 105.555 129.157C106.088 129.157 106.531 129.317 106.882 129.636C107.237 129.956 107.426 130.37 107.449 130.88H106.68C106.657 130.572 106.54 130.32 106.329 130.124C106.121 129.925 105.863 129.825 105.555 129.825C105.142 129.825 104.821 129.975 104.593 130.273C104.367 130.569 104.254 130.999 104.254 131.561V131.715C104.254 132.263 104.367 132.685 104.593 132.98C104.818 133.276 105.141 133.424 105.56 133.424ZM108.148 131.579C108.148 131.113 108.239 130.694 108.42 130.322C108.605 129.95 108.86 129.663 109.185 129.46C109.513 129.258 109.887 129.157 110.306 129.157C110.953 129.157 111.476 129.381 111.875 129.83C112.276 130.278 112.477 130.874 112.477 131.618V131.675C112.477 132.138 112.387 132.554 112.208 132.923C112.033 133.29 111.779 133.575 111.448 133.78C111.12 133.985 110.742 134.088 110.314 134.088C109.67 134.088 109.147 133.864 108.746 133.416C108.347 132.967 108.148 132.374 108.148 131.636V131.579ZM108.965 131.675C108.965 132.203 109.087 132.626 109.33 132.945C109.576 133.265 109.904 133.424 110.314 133.424C110.728 133.424 111.056 133.263 111.299 132.941C111.542 132.616 111.664 132.162 111.664 131.579C111.664 131.057 111.539 130.635 111.29 130.313C111.044 129.988 110.716 129.825 110.306 129.825C109.904 129.825 109.581 129.985 109.334 130.304C109.088 130.624 108.965 131.081 108.965 131.675ZM114.379 134H113.566V127.25H114.379V134ZM116.568 134H115.755V127.25H116.568V134ZM119.846 134.088C119.202 134.088 118.677 133.877 118.273 133.455C117.869 133.03 117.667 132.463 117.667 131.754V131.605C117.667 131.133 117.756 130.713 117.935 130.344C118.116 129.972 118.368 129.682 118.69 129.474C119.016 129.263 119.367 129.157 119.745 129.157C120.363 129.157 120.844 129.361 121.187 129.768C121.529 130.175 121.701 130.758 121.701 131.517V131.855H118.479C118.491 132.324 118.627 132.704 118.888 132.994C119.152 133.281 119.486 133.424 119.89 133.424C120.177 133.424 120.42 133.366 120.62 133.249C120.819 133.131 120.993 132.976 121.143 132.783L121.639 133.169C121.241 133.782 120.643 134.088 119.846 134.088ZM119.745 129.825C119.417 129.825 119.142 129.945 118.919 130.186C118.696 130.423 118.559 130.757 118.506 131.188H120.888V131.126C120.864 130.713 120.753 130.394 120.554 130.168C120.354 129.939 120.085 129.825 119.745 129.825ZM124.553 133.424C124.843 133.424 125.096 133.336 125.313 133.161C125.53 132.985 125.65 132.765 125.673 132.501H126.442C126.428 132.774 126.334 133.033 126.161 133.279C125.988 133.525 125.757 133.722 125.467 133.868C125.18 134.015 124.875 134.088 124.553 134.088C123.905 134.088 123.39 133.873 123.006 133.442C122.625 133.008 122.435 132.417 122.435 131.667V131.53C122.435 131.067 122.52 130.656 122.689 130.295C122.859 129.935 123.103 129.655 123.419 129.456C123.738 129.257 124.115 129.157 124.548 129.157C125.082 129.157 125.524 129.317 125.875 129.636C126.23 129.956 126.419 130.37 126.442 130.88H125.673C125.65 130.572 125.533 130.32 125.322 130.124C125.114 129.925 124.856 129.825 124.548 129.825C124.135 129.825 123.814 129.975 123.586 130.273C123.36 130.569 123.248 130.999 123.248 131.561V131.715C123.248 132.263 123.36 132.685 123.586 132.98C123.812 133.276 124.134 133.424 124.553 133.424ZM128.459 128.094V129.245H129.347V129.874H128.459V132.822C128.459 133.013 128.499 133.156 128.578 133.253C128.657 133.347 128.792 133.394 128.982 133.394C129.076 133.394 129.205 133.376 129.369 133.341V134C129.155 134.059 128.947 134.088 128.745 134.088C128.382 134.088 128.108 133.978 127.923 133.758C127.739 133.539 127.646 133.227 127.646 132.822V129.874H126.781V129.245H127.646V128.094H128.459ZM131.184 134H130.371V129.245H131.184V134ZM130.305 127.984C130.305 127.852 130.345 127.741 130.424 127.65C130.506 127.559 130.626 127.514 130.784 127.514C130.942 127.514 131.062 127.559 131.145 127.65C131.227 127.741 131.268 127.852 131.268 127.984C131.268 128.116 131.227 128.226 131.145 128.313C131.062 128.401 130.942 128.445 130.784 128.445C130.626 128.445 130.506 128.401 130.424 128.313C130.345 128.226 130.305 128.116 130.305 127.984ZM134.058 132.897L135.236 129.245H136.066L134.361 134H133.742L132.019 129.245H132.85L134.058 132.897ZM138.76 134.088C138.116 134.088 137.591 133.877 137.187 133.455C136.783 133.03 136.581 132.463 136.581 131.754V131.605C136.581 131.133 136.67 130.713 136.849 130.344C137.03 129.972 137.282 129.682 137.604 129.474C137.93 129.263 138.281 129.157 138.659 129.157C139.277 129.157 139.758 129.361 140.101 129.768C140.443 130.175 140.615 130.758 140.615 131.517V131.855H137.394C137.405 132.324 137.542 132.704 137.802 132.994C138.066 133.281 138.4 133.424 138.804 133.424C139.091 133.424 139.334 133.366 139.534 133.249C139.733 133.131 139.907 132.976 140.057 132.783L140.553 133.169C140.155 133.782 139.557 134.088 138.76 134.088ZM138.659 129.825C138.331 129.825 138.056 129.945 137.833 130.186C137.61 130.423 137.473 130.757 137.42 131.188H139.802V131.126C139.778 130.713 139.667 130.394 139.468 130.168C139.269 129.939 138.999 129.825 138.659 129.825ZM147.817 131.675C147.817 132.402 147.65 132.986 147.316 133.429C146.982 133.868 146.534 134.088 145.972 134.088C145.371 134.088 144.907 133.875 144.579 133.451L144.539 134H143.792V127.25H144.605V129.768C144.933 129.361 145.386 129.157 145.963 129.157C146.54 129.157 146.993 129.375 147.321 129.812C147.652 130.249 147.817 130.846 147.817 131.605V131.675ZM147.004 131.583C147.004 131.029 146.897 130.602 146.684 130.3C146.47 129.998 146.162 129.847 145.761 129.847C145.225 129.847 144.839 130.096 144.605 130.594V132.651C144.854 133.149 145.242 133.398 145.77 133.398C146.159 133.398 146.462 133.247 146.679 132.945C146.896 132.644 147.004 132.189 147.004 131.583ZM150.349 132.809L151.456 129.245H152.326L150.415 134.734C150.119 135.525 149.648 135.92 149.004 135.92L148.85 135.907L148.547 135.85V135.191L148.767 135.208C149.042 135.208 149.256 135.153 149.408 135.042C149.563 134.93 149.691 134.727 149.791 134.431L149.971 133.947L148.274 129.245H149.162L150.349 132.809ZM160.122 131.97C160.043 132.646 159.792 133.169 159.371 133.539C158.952 133.905 158.394 134.088 157.696 134.088C156.94 134.088 156.334 133.817 155.877 133.275C155.423 132.733 155.196 132.008 155.196 131.1V130.484C155.196 129.89 155.301 129.367 155.512 128.916C155.726 128.464 156.028 128.119 156.417 127.878C156.807 127.635 157.258 127.514 157.771 127.514C158.451 127.514 158.996 127.704 159.406 128.085C159.816 128.463 160.055 128.987 160.122 129.658H159.274C159.201 129.148 159.041 128.779 158.795 128.551C158.552 128.322 158.21 128.208 157.771 128.208C157.232 128.208 156.809 128.407 156.501 128.806C156.196 129.204 156.044 129.771 156.044 130.506V131.126C156.044 131.82 156.189 132.373 156.479 132.783C156.769 133.193 157.175 133.398 157.696 133.398C158.165 133.398 158.524 133.292 158.773 133.082C159.025 132.868 159.192 132.497 159.274 131.97H160.122ZM162.183 134H161.339V127.602H162.183V134ZM163.431 132.282C163.431 131.974 163.516 131.691 163.686 131.434C163.859 131.176 164.187 130.875 164.67 130.533C164.386 130.187 164.196 129.909 164.099 129.698C164.002 129.487 163.954 129.277 163.954 129.069C163.954 128.583 164.098 128.202 164.385 127.927C164.672 127.651 165.062 127.514 165.554 127.514C165.993 127.514 166.356 127.643 166.644 127.9C166.931 128.155 167.074 128.478 167.074 128.867C167.074 129.125 167.008 129.364 166.876 129.583C166.748 129.8 166.521 130.029 166.195 130.269L165.725 130.616L167.149 132.317C167.348 131.936 167.448 131.513 167.448 131.047H168.182C168.182 131.794 168.001 132.414 167.641 132.906L168.555 134H167.58L167.153 133.495C166.937 133.688 166.682 133.836 166.389 133.938C166.099 134.038 165.803 134.088 165.501 134.088C164.877 134.088 164.376 133.922 163.998 133.591C163.62 133.26 163.431 132.824 163.431 132.282ZM165.501 133.424C165.932 133.424 166.326 133.26 166.683 132.932L165.123 131.064L164.978 131.17C164.489 131.53 164.244 131.901 164.244 132.282C164.244 132.627 164.355 132.904 164.578 133.112C164.804 133.32 165.111 133.424 165.501 133.424ZM164.767 129.043C164.767 129.324 164.94 129.676 165.286 130.098L165.804 129.733C166.003 129.592 166.14 129.459 166.213 129.333C166.286 129.204 166.323 129.049 166.323 128.867C166.323 128.671 166.25 128.508 166.103 128.379C165.957 128.248 165.772 128.182 165.549 128.182C165.309 128.182 165.119 128.264 164.978 128.428C164.837 128.589 164.767 128.794 164.767 129.043ZM173.75 128.296H171.693V134H170.854V128.296H168.801V127.602H173.75V128.296ZM176.105 134.088C175.46 134.088 174.936 133.877 174.532 133.455C174.127 133.03 173.925 132.463 173.925 131.754V131.605C173.925 131.133 174.015 130.713 174.193 130.344C174.375 129.972 174.627 129.682 174.949 129.474C175.274 129.263 175.626 129.157 176.004 129.157C176.622 129.157 177.103 129.361 177.445 129.768C177.788 130.175 177.959 130.758 177.959 131.517V131.855H174.738C174.75 132.324 174.886 132.704 175.147 132.994C175.411 133.281 175.745 133.424 176.149 133.424C176.436 133.424 176.679 133.366 176.878 133.249C177.078 133.131 177.252 132.976 177.401 132.783L177.898 133.169C177.5 133.782 176.902 134.088 176.105 134.088ZM176.004 129.825C175.676 129.825 175.4 129.945 175.178 130.186C174.955 130.423 174.817 130.757 174.765 131.188H177.146V131.126C177.123 130.713 177.012 130.394 176.812 130.168C176.613 129.939 176.344 129.825 176.004 129.825ZM181.203 129.975C181.08 129.954 180.946 129.944 180.803 129.944C180.27 129.944 179.908 130.171 179.717 130.625V134H178.904V129.245H179.695L179.708 129.794C179.975 129.37 180.353 129.157 180.842 129.157C181 129.157 181.121 129.178 181.203 129.219V129.975ZM184.723 132.739C184.723 132.519 184.639 132.349 184.472 132.229C184.308 132.106 184.02 132 183.606 131.913C183.196 131.825 182.87 131.719 182.626 131.596C182.386 131.473 182.208 131.327 182.09 131.157C181.976 130.987 181.919 130.785 181.919 130.55C181.919 130.161 182.083 129.831 182.411 129.562C182.742 129.292 183.164 129.157 183.677 129.157C184.216 129.157 184.652 129.296 184.986 129.575C185.323 129.853 185.492 130.209 185.492 130.643H184.674C184.674 130.42 184.579 130.228 184.389 130.067C184.201 129.906 183.964 129.825 183.677 129.825C183.381 129.825 183.149 129.89 182.982 130.019C182.815 130.147 182.732 130.316 182.732 130.524C182.732 130.72 182.81 130.868 182.965 130.968C183.12 131.067 183.4 131.163 183.804 131.253C184.211 131.344 184.541 131.453 184.793 131.579C185.045 131.705 185.231 131.857 185.351 132.036C185.474 132.211 185.536 132.427 185.536 132.682C185.536 133.106 185.366 133.448 185.026 133.706C184.686 133.96 184.245 134.088 183.703 134.088C183.322 134.088 182.985 134.021 182.692 133.886C182.399 133.751 182.169 133.563 182.002 133.323C181.838 133.08 181.756 132.818 181.756 132.537H182.569C182.584 132.809 182.692 133.026 182.895 133.187C183.1 133.345 183.369 133.424 183.703 133.424C184.011 133.424 184.257 133.363 184.441 133.24C184.629 133.114 184.723 132.947 184.723 132.739Z" fill="#343334"/>
</svg>
